Coordinates
nRows=248
nColumns=2
inDegrees=yes
endheader
time	ankle_angle_r	
3.42641	 -0.426406	
3.45968	 -0.407808	
3.49294	 -0.399863	
3.52621	 -0.403527	
3.55948	 -0.414059	
3.59274	 -0.428201	
3.62601	 -0.440776	
3.65927	 -0.448183	
3.69254	 -0.454391	
3.72581	 -0.459206	
3.75907	 -0.457530	
3.79234	 -0.453162	
3.8256	 -0.452801	
3.85887	 -0.457084	
3.89214	 -0.466330	
3.9254	 -0.479399	
3.95867	 -0.490757	
3.99194	 -0.497118	
4.0252	 -0.498209	
4.05847	 -0.493802	
4.09173	 -0.486969	
4.125	 -0.482512	
4.15827	 -0.481185	
4.19153	 -0.480635	
4.2248	 -0.476224	
4.25806	 -0.463989	
4.29133	 -0.448896	
4.3246	 -0.438103	
4.35786	 -0.429691	
4.39113	 -0.420841	
4.4244	 -0.415137	
4.45766	 -0.417028	
4.49093	 -0.425809	
4.52419	 -0.432935	
4.55746	 -0.430105	
4.59073	 -0.419993	
4.62399	 -0.410956	
4.65726	 -0.408793	
4.69052	 -0.415876	
4.72379	 -0.428248	
4.75706	 -0.437864	
4.79032	 -0.440299	
4.82359	 -0.434614	
4.85685	 -0.423896	
4.89012	 -0.415860	
4.92339	 -0.413011	
4.95665	 -0.411892	
4.98992	 -0.412622	
5.02319	 -0.417051	
5.05645	 -0.423785	
5.08972	 -0.429493	
5.12298	 -0.432987	
5.15625	 -0.439948	
5.18952	 -0.456221	
5.22278	 -0.475954	
5.25605	 -0.488038	
5.28931	 -0.489079	
5.32258	 -0.482823	
5.35585	 -0.476232	
5.38911	 -0.476115	
5.42238	 -0.482494	
5.45565	 -0.490319	
5.48891	 -0.496164	
5.52218	 -0.498187	
5.55544	 -0.498589	
5.58871	 -0.504314	
5.62198	 -0.516612	
5.65524	 -0.527531	
5.68851	 -0.527655	
5.72177	 -0.513245	
5.75504	 -0.491675	
5.78831	 -0.476245	
5.82157	 -0.470810	
5.85484	 -0.468382	
5.8881	 -0.464256	
5.92137	 -0.459073	
5.95464	 -0.453555	
5.9879	 -0.448423	
6.02117	 -0.443026	
6.05444	 -0.435233	
6.0877	 -0.426488	
6.12097	 -0.421699	
6.15423	 -0.425504	
6.1875	 -0.436502	
6.22077	 -0.445189	
6.25403	 -0.445160	
6.2873	 -0.439491	
6.32056	 -0.433833	
6.35383	 -0.432056	
6.3871	 -0.435445	
6.42036	 -0.442037	
6.45363	 -0.448488	
6.4869	 -0.452097	
6.52016	 -0.453520	
6.55343	 -0.456465	
6.58669	 -0.461189	
6.61996	 -0.464475	
6.65323	 -0.466590	
6.68649	 -0.472354	
6.71976	 -0.484939	
6.75302	 -0.499691	
6.78629	 -0.507713	
6.81956	 -0.505975	
6.85282	 -0.499357	
6.88609	 -0.492400	
6.91935	 -0.485531	
6.95262	 -0.482302	
6.98589	 -0.487921	
7.01915	 -0.497846	
7.05242	 -0.504602	
7.08569	 -0.510744	
7.11895	 -0.520519	
7.15222	 -0.531168	
7.18548	 -0.536202	
7.21875	 -0.530330	
7.25202	 -0.516428	
7.28528	 -0.502169	
7.31855	 -0.492101	
7.35181	 -0.490480	
7.38508	 -0.497210	
7.41835	 -0.503489	
7.45161	 -0.502916	
7.48488	 -0.496892	
7.51815	 -0.490954	
7.55141	 -0.491998	
7.58468	 -0.499736	
7.61794	 -0.506900	
7.65121	 -0.512242	
7.68448	 -0.516557	
7.71774	 -0.515091	
7.75101	 -0.509574	
7.78427	 -0.509527	
7.81754	 -0.518053	
7.85081	 -0.530115	
7.88407	 -0.538971	
7.91734	 -0.540585	
7.9506	 -0.535726	
7.98387	 -0.524825	
8.01714	 -0.505970	
8.0504	 -0.483280	
8.08367	 -0.465566	
8.11694	 -0.456448	
8.1502	 -0.455307	
8.18347	 -0.459799	
8.21673	 -0.465188	
8.25	 -0.468479	
8.28327	 -0.468943	
8.31653	 -0.465952	
8.3498	 -0.462125	
8.38306	 -0.460313	
8.41633	 -0.458315	
8.4496	 -0.455081	
8.48286	 -0.452798	
8.51613	 -0.452368	
8.5494	 -0.454624	
8.58266	 -0.457280	
8.61593	 -0.453993	
8.64919	 -0.446166	
8.68246	 -0.442634	
8.71573	 -0.446706	
8.74899	 -0.457982	
8.78226	 -0.476852	
8.81552	 -0.497376	
8.84879	 -0.509267	
8.88206	 -0.510750	
8.91532	 -0.510134	
8.94859	 -0.514310	
8.98185	 -0.521183	
9.01512	 -0.524502	
9.04839	 -0.521740	
9.08165	 -0.514671	
9.11492	 -0.506938	
9.14819	 -0.504040	
9.18145	 -0.510315	
9.21472	 -0.524673	
9.24798	 -0.541440	
9.28125	 -0.550859	
9.31452	 -0.545401	
9.34778	 -0.532273	
9.38105	 -0.524400	
9.41431	 -0.520828	
9.44758	 -0.513310	
9.48085	 -0.501821	
9.51411	 -0.492256	
9.54738	 -0.487403	
9.58065	 -0.484133	
9.61391	 -0.480527	
9.64718	 -0.481687	
9.68044	 -0.487621	
9.71371	 -0.486914	
9.74698	 -0.475511	
9.78024	 -0.463151	
9.81351	 -0.456668	
9.84677	 -0.456354	
9.88004	 -0.460879	
9.91331	 -0.464442	
9.94657	 -0.462718	
9.97984	 -0.459096	
10.0131	 -0.457556	
10.0464	 -0.459745	
10.0796	 -0.464440	
10.1129	 -0.466923	
10.1462	 -0.468307	
10.1794	 -0.473739	
10.2127	 -0.479770	
10.246	 -0.481645	
10.2792	 -0.483504	
10.3125	 -0.491472	
10.3458	 -0.507557	
10.379	 -0.526371	
10.4123	 -0.537274	
10.4456	 -0.537219	
10.4788	 -0.531985	
10.5121	 -0.526395	
10.5454	 -0.523148	
10.5786	 -0.521026	
10.6119	 -0.513528	
10.6452	 -0.499089	
10.6784	 -0.484378	
10.7117	 -0.475383	
10.745	 -0.475073	
10.7782	 -0.483759	
10.8115	 -0.495433	
10.8448	 -0.502561	
10.878	 -0.504238	
10.9113	 -0.504154	
10.9446	 -0.506495	
10.9778	 -0.512769	
11.0111	 -0.519231	
11.0444	 -0.522764	
11.0776	 -0.524821	
11.1109	 -0.527712	
11.1442	 -0.534162	
11.1774	 -0.544073	
11.2107	 -0.550373	
11.244	 -0.548727	
11.2772	 -0.543228	
11.3105	 -0.536686	
11.3437	 -0.528377	
11.377	 -0.518663	
11.4103	 -0.508115	
11.4435	 -0.500184	
11.4768	 -0.502539	
11.5101	 -0.516409	
11.5433	 -0.531631	
11.5766	 -0.536323	
11.6099	 -0.525100	
11.6431	 -0.501857	
